# xmcd
#
# Track frame offsets:
#	150
#	19767
#	40688
#	57178
#	78325
#	97317
#	118778
#	135387
#	155655
#	174119
#	191249
#
# Disc length: 2782 seconds
#
# Revision: 1
# Processed by: cddbd v1.5.2PL0 Copyright (c) Steve Scherf et al.
# Submitted via: audiograbber 1.83.01
#
DISCID=8c0adc0b
DTITLE=Tony McLoughlin and Marlon Klein - Where Is Jack
DYEAR=2016
DGENRE=
TTITLE0=Another Poor Rider
TTITLE1=Eagle Eye
TTITLE2=Where Is Jack
TTITLE3=I´m On My Way
TTITLE4=Only You
TTITLE5=Heart Of Darkness
TTITLE6=Bommaker
TTITLE7=People
TTITLE8=Sacred Nights
TTITLE9=Spanish Boots
TTITLE10=Red Light Love
EXTD=
EXTT0=
EXTT1=
EXTT2=
EXTT3=
EXTT4=
EXTT5=
EXTT6=
EXTT7=
EXTT8=
EXTT9=
EXTT10=
PLAYORDER=
